<mxfile host="app.diagrams.net" modified="2022-12-02T11:52:17.907Z" agent="5.0 (Macintosh)" etag="-t1AFil0wgq1YryuEQTW" version="20.5.3" type="github">
  <diagram id="C5RBs43oDa-KdzZeNtuy" name="Page-1">
    <mxGraphModel dx="786" dy="374" grid="1" gridSize="10" guides="1" tooltips="1" connect="1" arrows="1" fold="1" page="1" pageScale="1" pageWidth="827" pageHeight="1169" math="0" shadow="0">
      <root>
        <mxCell id="WIyWlLk6GJQsqaUBKTNV-0" />
        <mxCell id="WIyWlLk6GJQsqaUBKTNV-1" parent="WIyWlLk6GJQsqaUBKTNV-0" />
        <mxCell id="b5-lC_gH31U_IA7LsAaC-0" value="&lt;b&gt;User&lt;/b&gt;" style="swimlane;fontStyle=0;childLayout=stackLayout;horizontal=1;startSize=30;horizontalStack=0;resizeParent=1;resizeParentMax=0;resizeLast=0;collapsible=1;marginBottom=0;whiteSpace=wrap;html=1;" vertex="1" parent="WIyWlLk6GJQsqaUBKTNV-1">
          <mxGeometry x="40" y="140" width="210" height="120" as="geometry" />
        </mxCell>
        <mxCell id="b5-lC_gH31U_IA7LsAaC-1" value="Name: string" style="text;strokeColor=none;fillColor=none;align=left;verticalAlign=middle;spacingLeft=4;spacingRight=4;overflow=hidden;points=[[0,0.5],[1,0.5]];portConstraint=eastwest;rotatable=0;whiteSpace=wrap;html=1;" vertex="1" parent="b5-lC_gH31U_IA7LsAaC-0">
          <mxGeometry y="30" width="210" height="30" as="geometry" />
        </mxCell>
        <mxCell id="b5-lC_gH31U_IA7LsAaC-2" value="Wallet: integer" style="text;strokeColor=none;fillColor=none;align=left;verticalAlign=middle;spacingLeft=4;spacingRight=4;overflow=hidden;points=[[0,0.5],[1,0.5]];portConstraint=eastwest;rotatable=0;whiteSpace=wrap;html=1;" vertex="1" parent="b5-lC_gH31U_IA7LsAaC-0">
          <mxGeometry y="60" width="210" height="30" as="geometry" />
        </mxCell>
        <mxCell id="b5-lC_gH31U_IA7LsAaC-3" value="Bookings: []" style="text;strokeColor=none;fillColor=none;align=left;verticalAlign=middle;spacingLeft=4;spacingRight=4;overflow=hidden;points=[[0,0.5],[1,0.5]];portConstraint=eastwest;rotatable=0;whiteSpace=wrap;html=1;" vertex="1" parent="b5-lC_gH31U_IA7LsAaC-0">
          <mxGeometry y="90" width="210" height="30" as="geometry" />
        </mxCell>
        <mxCell id="b5-lC_gH31U_IA7LsAaC-4" value="" style="rounded=0;whiteSpace=wrap;html=1;fillColor=none;align=left;" vertex="1" parent="WIyWlLk6GJQsqaUBKTNV-1">
          <mxGeometry x="40" y="260" width="210" height="100" as="geometry" />
        </mxCell>
        <mxCell id="b5-lC_gH31U_IA7LsAaC-5" value="make_booking()" style="text;html=1;strokeColor=none;fillColor=none;align=left;verticalAlign=middle;whiteSpace=wrap;rounded=0;" vertex="1" parent="WIyWlLk6GJQsqaUBKTNV-1">
          <mxGeometry x="40" y="270" width="210" height="20" as="geometry" />
        </mxCell>
        <mxCell id="b5-lC_gH31U_IA7LsAaC-6" value="edit_booking ()" style="text;html=1;strokeColor=none;fillColor=none;align=left;verticalAlign=middle;whiteSpace=wrap;rounded=0;" vertex="1" parent="WIyWlLk6GJQsqaUBKTNV-1">
          <mxGeometry x="41" y="300" width="210" height="10" as="geometry" />
        </mxCell>
        <mxCell id="b5-lC_gH31U_IA7LsAaC-7" value="cancel_booking()" style="text;html=1;strokeColor=none;fillColor=none;align=left;verticalAlign=middle;whiteSpace=wrap;rounded=0;" vertex="1" parent="WIyWlLk6GJQsqaUBKTNV-1">
          <mxGeometry x="40" y="320" width="200" height="20" as="geometry" />
        </mxCell>
        <mxCell id="b5-lC_gH31U_IA7LsAaC-8" value="Studio" style="swimlane;whiteSpace=wrap;html=1;fillColor=none;" vertex="1" parent="WIyWlLk6GJQsqaUBKTNV-1">
          <mxGeometry x="340" y="140" width="200" height="220" as="geometry" />
        </mxCell>
        <mxCell id="b5-lC_gH31U_IA7LsAaC-9" value="Studio_Number: string" style="text;html=1;strokeColor=none;fillColor=none;align=left;verticalAlign=middle;whiteSpace=wrap;rounded=0;" vertex="1" parent="b5-lC_gH31U_IA7LsAaC-8">
          <mxGeometry x="10" y="30" width="170" height="30" as="geometry" />
        </mxCell>
        <mxCell id="b5-lC_gH31U_IA7LsAaC-10" value="Capacity: integer" style="text;html=1;strokeColor=none;fillColor=none;align=left;verticalAlign=middle;whiteSpace=wrap;rounded=0;" vertex="1" parent="b5-lC_gH31U_IA7LsAaC-8">
          <mxGeometry x="10" y="60" width="170" height="30" as="geometry" />
        </mxCell>
        <mxCell id="b5-lC_gH31U_IA7LsAaC-11" value="booked_times: []" style="text;html=1;strokeColor=none;fillColor=none;align=left;verticalAlign=middle;whiteSpace=wrap;rounded=0;" vertex="1" parent="b5-lC_gH31U_IA7LsAaC-8">
          <mxGeometry x="10" y="90" width="170" height="30" as="geometry" />
        </mxCell>
        <mxCell id="b5-lC_gH31U_IA7LsAaC-12" value="" style="endArrow=none;html=1;rounded=0;" edge="1" parent="b5-lC_gH31U_IA7LsAaC-8">
          <mxGeometry width="50" height="50" relative="1" as="geometry">
            <mxPoint y="130" as="sourcePoint" />
            <mxPoint x="200" y="130" as="targetPoint" />
          </mxGeometry>
        </mxCell>
      </root>
    </mxGraphModel>
  </diagram>
</mxfile>
